<svg xmlns="http://www.w3.org/2000/svg" viewBox="0 0 1000 1000"><defs><linearGradient id="ground" gradientUnits="userSpaceOnUse" x1="0" y1="0" x2="0" y2="1000"><stop offset="0" stop-color="#221C16"/><stop offset="1" stop-color="#0F0C0A"/></linearGradient><linearGradient id="light" gradientUnits="userSpaceOnUse" x1="0" y1="230" x2="0" y2="618"><stop offset="0" stop-color="#FFCB78" stop-opacity="0"/><stop offset="0.25" stop-color="#FBB464" stop-opacity="0.22"/><stop offset="0.5" stop-color="#F79E4F" stop-opacity="0.47"/><stop offset="0.75" stop-color="#F3873B" stop-opacity="0.73"/><stop offset="1" stop-color="#EF7026" stop-opacity="1"/></linearGradient><linearGradient id="pages" gradientUnits="userSpaceOnUse" x1="0" y1="470" x2="0" y2="790"><stop offset="0" stop-color="#F7F0E6"/><stop offset="1" stop-color="#E6D8C6"/></linearGradient></defs><rect width="1000" height="1000" fill="url(#ground)"/><g transform="translate(40 -4) scale(0.92)"><path d="M458 704 L488 230 L512 230 L542 704 Z" fill="url(#light)"/><path d="M197 606 C312.14 522 433.34 605.8 500 652 C566.66 605.8 687.86 522 803 606 L803 778 C687.86 694 566.66 793.8 500 840 C433.34 793.8 312.14 694 197 778 Z" fill="#C8652B"/><path d="M208 588 C318.96 504 435.76 587.8 500 634 C564.24 587.8 681.04 504 792 588 L792 760 C681.04 676 564.24 775.8 500 822 C435.76 775.8 318.96 676 208 760 Z" fill="url(#pages)"/><path d="M493 824 L494 631 L506 631 L507 824 Z" fill="#C8652B"/></g></svg>
